<svg width="406" height="306" viewBox="0 0 406 306" fill="none" xmlns="http://www.w3.org/2000/svg">
<path d="M207.852 293.912L390.267 186.099C396.073 182.841 401.057 177.482 395.393 173.98L212.318 68.4201C209.567 66.7149 205.395 65.5984 202.604 67.2224L11.165 178.375C5.35919 181.745 4.31374 191.164 10.15 194.544L183.806 293.74C187.454 295.856 191.59 296.985 195.806 297.015C200.023 297.045 204.174 295.976 207.852 293.912Z" fill="#D9616F"/>
<path style="mix-blend-mode:multiply" opacity="0.63" d="M147.52 166.611L169.383 180.821L128.002 208.054C127.636 208.054 124.155 217.706 126.916 208.054C109.965 198.705 108.899 206.734 96.8513 199.294C114.989 186.81 134.325 174.762 147.52 166.611Z" fill="url(#paint0_linear_21_117)"/>
<path style="mix-blend-mode:multiply" opacity="0.63" d="M225.117 236.798L245.924 246.319L204.543 273.552C204.177 273.552 200.696 283.204 203.457 273.552C186.506 264.203 185.44 272.232 173.392 264.792C191.541 252.257 211.922 244.949 225.117 236.798Z" fill="url(#paint1_linear_21_117)"/>
<path d="M184.324 145.337L202.807 154.238C203.504 154.573 204.096 155.091 204.52 155.737C204.945 156.383 205.185 157.133 205.215 157.905C205.245 158.678 205.065 159.444 204.692 160.121C204.32 160.798 203.77 161.361 203.101 161.749L159.294 187.307C158.347 187.861 157.223 188.028 156.156 187.772C155.09 187.517 154.163 186.859 153.569 185.937L142.922 169.382" fill="#56403D"/>
<path d="M83.7679 102.534L231.187 17.599C232.198 17.0164 233.344 16.7103 234.511 16.7112C235.678 16.7122 236.824 17.0203 237.834 17.6046C238.844 18.1888 239.683 19.0287 240.266 20.0397C240.848 21.0507 241.155 22.1973 241.154 23.3642V111.669C241.154 112.64 240.9 113.593 240.415 114.434C239.93 115.275 239.233 115.974 238.393 116.46L81.2507 207.201C80.7119 207.513 80.1007 207.679 79.478 207.681C78.8553 207.684 78.2428 207.523 77.7016 207.215C77.1604 206.907 76.7094 206.462 76.3936 205.926C76.0778 205.389 75.9082 204.779 75.9017 204.156V116.135C75.9017 113.377 76.6289 110.667 78.0099 108.279C79.3909 105.891 81.377 103.91 83.7679 102.534Z" fill="#68E1FD"/>
<path d="M231.166 24.2777L88.234 106.493C86.7064 107.371 85.4375 108.637 84.5553 110.162C83.6732 111.688 83.2091 113.419 83.2097 115.181V181.42C83.2116 182.054 83.3795 182.676 83.6969 183.224C84.0143 183.773 84.4699 184.228 85.0184 184.546C85.5669 184.863 86.189 185.031 86.8227 185.033C87.4564 185.035 88.0795 184.871 88.6298 184.556L234.404 100.92C234.942 100.612 235.39 100.17 235.705 99.6356C236.02 99.1018 236.191 98.4951 236.201 97.8754V27.14C236.192 26.555 236.031 25.9825 235.733 25.479C235.435 24.9755 235.01 24.5585 234.502 24.2693C233.993 23.9802 233.418 23.8289 232.833 23.8303C232.248 23.8318 231.673 23.986 231.166 24.2777Z" fill="white"/>
<path d="M171.036 149.203C169.351 148.879 168.287 147.054 168.658 145.128C169.029 143.201 170.695 141.902 172.379 142.227C174.064 142.551 175.128 144.376 174.757 146.302C174.386 148.229 172.72 149.528 171.036 149.203Z" fill="#AB643C"/>
<path d="M59.885 159.09L101.997 135.968C102.806 135.523 103.48 134.869 103.949 134.075C104.419 133.28 104.667 132.374 104.667 131.452V54.2913C104.667 53.3861 104.429 52.4969 103.976 51.7129C103.524 50.929 102.873 50.278 102.089 49.8254C101.305 49.3728 100.416 49.1345 99.5107 49.1345C98.6056 49.1344 97.7163 49.3727 96.9325 49.8253L54.8201 74.1853C54.0362 74.6379 53.3852 75.2889 52.9327 76.0728C52.4801 76.8568 52.2419 77.7461 52.242 78.6513V154.644C52.2543 155.534 52.4968 156.406 52.946 157.175C53.3951 157.944 54.0357 158.583 54.8052 159.03C55.5747 159.478 56.447 159.719 57.3372 159.729C58.2274 159.74 59.1051 159.519 59.885 159.09Z" fill="#A2C609"/>
<path d="M62.4428 105.346V123.829C62.4428 129.198 70.7861 129.208 70.7861 123.829V105.346C70.7861 99.9764 62.4428 99.9663 62.4428 105.346Z" fill="#56403D"/>
<path d="M73.7804 86.3856V116.206C73.7804 121.576 82.1237 121.586 82.1237 116.206V86.3856C82.1237 81.0162 73.7804 81.0061 73.7804 86.3856Z" fill="#FFA197"/>
<path d="M87.219 64.7762V110.553C87.219 115.922 95.5623 115.932 95.5623 110.553V64.7762C95.5623 59.4068 87.219 59.3967 87.219 64.7762Z" fill="#F2F2F2"/>
<path d="M76.8355 129.005L66.5231 134.426C65.0615 135.197 66.3607 137.41 67.8223 136.638L78.155 131.218C79.5963 130.457 78.3073 128.234 76.8355 129.005Z" fill="#F2F2F2"/>
<path d="M94.9227 127.625C85.3276 132.768 75.6344 137.721 65.843 142.485C64.3611 143.205 65.6603 145.418 67.1422 144.697C76.9336 139.961 86.6268 135.007 96.2219 129.838C97.6734 129.087 96.4249 126.874 94.9227 127.625Z" fill="#F2F2F2"/>
<path d="M283.855 49.3076V66.8163C283.855 67.6381 283.639 68.4455 283.229 69.1579C282.82 69.8703 282.23 70.4628 281.52 70.8763L221.219 105.945C220.513 106.366 219.709 106.594 218.887 106.607C218.065 106.62 217.253 106.417 216.534 106.018C215.815 105.62 215.213 105.04 214.789 104.336C214.364 103.632 214.131 102.828 214.114 102.006L213.657 84.7514C213.634 83.9074 213.839 83.0727 214.249 82.335C214.66 81.5974 215.262 80.984 215.992 80.5594L276.79 45.2476C277.505 44.8318 278.316 44.6115 279.142 44.6092C279.968 44.6068 280.781 44.8224 281.497 45.2341C282.214 45.6459 282.809 46.2393 283.223 46.9544C283.637 47.6696 283.855 48.4813 283.855 49.3076Z" fill="#A2C609"/>
<path d="M129.92 116.643L197.925 76.7024C205.03 72.5003 209.455 85.1066 201.538 89.4914C177.452 103.651 153.915 117.221 129.961 131.228L129.92 116.643Z" fill="#68E1FD"/>
<path d="M115.03 125.392L129.92 116.643V131.238L119.354 137.43C112.218 141.632 107.894 129.594 115.03 125.392Z" fill="#68E1FD"/>
<path d="M121.995 131.473C120.502 131.004 119.827 128.921 120.487 126.819C121.146 124.717 122.891 123.392 124.383 123.861C125.875 124.329 126.55 126.412 125.891 128.514C125.231 130.616 123.487 131.941 121.995 131.473Z" stroke="white" stroke-width="1.015" stroke-miterlimit="10"/>
<path d="M121.049 130.832L117.172 134.913" stroke="white" stroke-width="1.015" stroke-miterlimit="10"/>
<path d="M188.181 109.355C190.117 108.758 191.804 107.542 192.982 105.894C194.844 103.311 195.861 100.216 195.895 97.0329C196.118 89.9279 192.008 84.051 186.76 83.8379C185.371 83.841 184.003 84.1828 182.776 84.8337C181.548 85.4846 180.498 86.4248 179.716 87.5731C177.858 90.1429 176.837 93.2228 176.793 96.3934C176.64 99.5595 177.466 102.696 179.158 105.376C179.866 106.57 180.855 107.572 182.038 108.297C183.221 109.023 184.563 109.448 185.948 109.538C186.697 109.59 187.45 109.528 188.181 109.355ZM185.309 87.025C185.748 86.9023 186.203 86.8475 186.658 86.8626C190.272 86.9742 193.175 91.6229 193.002 97.0126C192.965 99.5633 192.151 102.042 190.668 104.118C190.203 104.935 189.525 105.611 188.705 106.071C187.885 106.532 186.955 106.76 186.015 106.73C185.075 106.701 184.16 106.416 183.371 105.905C182.581 105.395 181.945 104.678 181.533 103.833C180.171 101.648 179.515 99.0965 179.655 96.5254C179.691 93.9745 180.505 91.4954 181.99 89.4204C182.794 88.2577 183.961 87.394 185.309 86.9641V87.025Z" fill="#F15A24"/>
<path d="M171.027 128.569C170.806 128.451 170.619 128.278 170.484 128.066C170.348 127.855 170.27 127.612 170.256 127.361L181.614 106.472L184.182 107.833L173.159 128.782C172.448 128.99 171.684 128.913 171.027 128.569Z" fill="#F15A24"/>
<path d="M238.028 238.798C238.028 238.798 230.303 235.357 228.446 235.225C226.589 235.093 223.472 235.733 226.193 239.143C226.193 239.143 234.313 244.462 235.399 244.624C236.485 244.786 239.073 243.974 239.144 244.259C239.215 244.543 239.449 246.593 239.449 246.593C239.449 246.593 246.249 249.192 246.554 244.634C246.554 244.046 245.539 235.611 245.539 235.611" fill="#34323D"/>
<path d="M221.057 248.552L216.154 250.308C216.006 250.762 215.74 251.168 215.383 251.485C215.027 251.803 214.592 252.02 214.124 252.115C213.952 252.319 213.71 252.453 213.444 252.49C211.414 252.795 209.547 252.145 207.618 251.546C205.274 250.816 196.108 247.304 198.646 253.881C200.32 255.058 202.188 256.073 203.903 257.119C204.868 257.707 205.832 258.286 206.816 258.834C207.341 259.19 207.921 259.457 208.532 259.626C209.851 259.829 213.049 258.834 213.13 259.169C213.211 259.504 213.505 262.031 213.505 262.031C213.505 262.031 221.849 265.218 222.214 259.626C222.285 258.915 221.057 248.552 221.057 248.552Z" fill="#34323D"/>
<path d="M211.81 177.867C212.419 172.955 213.136 168.059 213.962 163.18C214.114 162.297 214.206 158.4 214.977 157.791C214.977 157.791 222.082 152.015 227.786 150.605L228.395 148.138L228.456 148.199C228.456 145.763 231.958 144.139 233.176 146.737C235.463 151.782 237.205 157.056 238.373 162.47C240.021 170.503 241.09 178.644 241.57 186.83C242.18 193.668 243.197 200.464 244.615 207.181C246.645 217.422 246.645 227.42 245.853 237.763C245.853 237.763 244.036 243.315 235.774 240.128L235.51 237.824C235.277 237.741 235.072 237.592 234.921 237.396C234.77 237.2 234.679 236.964 234.658 236.717C233.318 222.233 229.958 200.766 227.025 186.525C226.802 190.159 227.157 200.441 226.934 204.075C226.934 204.562 226.873 205.881 226.832 206.369C225.817 222.67 225.198 238.575 223.929 254.865C217.596 257.454 215.018 256.256 211.09 252.237C209.882 227.349 208.755 202.674 211.81 177.867Z" fill="#68E1FD"/>
<path d="M173.748 112.329C173.774 112.163 173.834 112.004 173.924 111.862C174.014 111.72 174.132 111.598 174.271 111.503C174.409 111.408 174.566 111.342 174.731 111.31C174.896 111.277 175.065 111.279 175.23 111.314C175.251 111.133 175.321 110.961 175.432 110.817C175.542 110.672 175.69 110.56 175.859 110.492C176.187 110.377 176.545 110.377 176.874 110.492C176.98 110.151 177.218 109.866 177.534 109.7C177.849 109.559 178.201 109.521 178.54 109.59C178.878 109.659 179.187 109.832 179.422 110.086C179.501 109.932 179.618 109.801 179.761 109.705C179.905 109.609 180.071 109.551 180.244 109.538C181.259 109.467 181.553 110.553 181.512 111.344C181.584 111.842 181.655 112.359 181.705 112.999C182.142 111.07 181.492 113.161 182.162 111.284C182.568 110.157 184.649 111.334 184.537 112.4C184.198 114.619 184.082 116.867 184.192 119.109C184.198 119.251 184.174 119.393 184.121 119.525L185.035 120.693C185.309 121.038 185.583 121.352 185.826 121.708L186.09 121.951C186.21 122.047 186.304 122.172 186.363 122.314C186.422 122.456 186.443 122.61 186.425 122.763C186.497 122.957 186.548 123.158 186.577 123.362C186.585 123.429 186.585 123.498 186.577 123.565C186.841 123.971 187.125 124.377 187.389 124.793C187.485 124.934 187.544 125.096 187.561 125.266C187.578 125.435 187.552 125.606 187.485 125.763C187.418 125.92 187.313 126.057 187.179 126.163C187.046 126.268 186.887 126.338 186.719 126.366L186.943 126.448C188.161 126.874 187.318 128.691 186.1 128.275C183.536 127.384 181.27 125.799 179.553 123.697C179.404 123.662 179.265 123.589 179.153 123.484C179.041 123.378 178.958 123.245 178.914 123.098L178.752 122.631C177.38 120.779 176.305 118.724 175.565 116.541C175.481 116.257 175.369 115.981 175.23 115.719C174.58 114.836 173.636 113.415 173.748 112.329Z" fill="#FCBF81"/>
<path d="M214.084 161.932C213.864 161.374 213.548 160.859 213.15 160.409C212.235 158.788 211.464 157.09 210.846 155.334C207.485 147.734 205.426 139.623 204.756 131.34V131.228C204.621 129.746 204.529 128.264 204.482 126.783C204.293 124.84 204.757 122.89 205.801 121.241C205.953 121.039 206.119 120.849 206.299 120.672C208.095 118.896 210.907 118.368 212.967 116.937C214.49 115.922 216.083 114.653 217.941 114.653C219.477 114.759 220.921 115.423 222.001 116.521C225.442 119.617 226.974 124.245 228.375 128.701L234.465 147.986C234.729 148.818 234.993 149.65 235.236 150.493C229.156 157.212 223.087 161.912 214.084 161.932Z" fill="#8B93FC"/>
<path d="M214.165 112.745L214.784 116.937C214.784 116.937 212.977 120.52 208.197 119.647L207.933 115.465" fill="#FCBF81"/>
<path d="M202.543 102.697C202.147 102.96 201.406 112.694 204.634 117.333C207.862 121.971 214.784 113.648 215.586 108.979C216.388 104.31 210.054 97.6825 202.543 102.697Z" fill="#FCBF81"/>
<path d="M203.071 103.833C203.35 104.617 203.85 105.303 204.512 105.807C205.173 106.312 205.967 106.613 206.796 106.675C209.557 106.675 211.79 106.675 212.054 107.802C212.318 108.929 207.578 109.182 208.471 111.771C209.074 113.513 209.911 115.166 210.958 116.683C211.668 117.861 217.646 111.426 217.758 103.965C217.87 96.5051 211.211 96.8604 210.897 96.8604C210.582 96.8604 209.415 95.3074 206.228 95.6931C203.041 96.0788 202.604 97.5201 202.604 97.5201C201.788 97.3472 200.938 97.4473 200.184 97.8049C199.43 98.1625 198.815 98.7579 198.433 99.4994C196.403 102.615 198.524 106.34 202.178 106.878L203.071 103.833Z" fill="#E55600"/>
<path d="M206.299 120.703C206.299 120.703 201.802 129.493 198.087 129.696C194.373 129.899 186.029 118.693 186.029 118.693C184.378 118.325 182.654 118.49 181.102 119.162C179.55 119.835 178.251 120.982 177.392 122.438C177.392 122.438 188.384 138.607 197.692 143.398C206.999 148.189 216.489 133.817 216.489 133.817" fill="#8B93FC"/>
<path style="mix-blend-mode:multiply" opacity="0.63" d="M330.078 171.341L348.348 181.593L324.8 196.351H324.191C314.67 191.103 306.307 192.605 299.537 188.423C308.286 183.765 321.978 177.055 330.078 171.341Z" fill="url(#paint2_linear_21_117)"/>
<path d="M356.844 153.335C356.844 153.335 358.985 178.71 345.455 183.176C331.925 187.642 325.155 174.691 325.683 152.34" fill="#68E1FD"/>
<path d="M340.98 161.845C332.374 161.572 325.526 157.317 325.684 152.341C325.842 147.366 332.947 143.554 341.553 143.828C350.159 144.101 357.007 148.356 356.849 153.332C356.691 158.307 349.586 162.118 340.98 161.845Z" fill="#F2696A"/>
<path d="M337.904 132.7C337.904 132.7 344.298 124.062 341.832 117.871C341.832 117.871 339.802 113.882 336.655 113.151C336.655 113.151 336.655 121.535 333.61 120.368C330.565 119.2 333.935 111.588 333.935 111.588C333.935 111.588 330.799 107.051 327.216 107.071C323.633 107.092 326.962 114.897 324.516 113.547C322.07 112.197 324.607 105.721 321.826 104.859C319.277 104.188 316.687 103.69 314.071 103.366C314.071 103.366 311.179 110.918 313.797 112.095C316.416 113.273 320.293 113.77 318.375 115.394C316.457 117.018 311.209 114.917 311.209 114.917C311.209 114.917 310.742 119.2 312.488 121.119C314.234 123.037 324.962 119.261 322.973 122.895C320.984 126.529 314.031 124.458 314.031 124.458C314.031 124.458 317.451 129.696 321.582 132.172C325.713 134.649 337.904 132.7 337.904 132.7Z" fill="#8CCC00"/>
<path d="M335.772 154.736C335.772 154.736 340.329 150.513 339.578 146.737C339.578 146.737 338.827 144.251 337.142 143.51C337.142 143.51 336.269 148.27 334.645 147.286C333.021 146.301 335.742 142.342 335.742 142.342C335.742 142.342 334.453 139.429 332.402 139.064C330.352 138.699 331.387 143.479 330.179 142.454C328.972 141.429 331.063 138.019 329.581 137.237C328.205 136.585 326.788 136.025 325.338 135.562C325.338 135.562 322.892 139.541 324.252 140.485C325.612 141.429 327.764 142.129 326.495 142.84C325.226 143.55 322.435 141.825 322.435 141.825C322.435 141.825 321.714 144.21 322.496 145.479C323.277 146.748 329.773 145.753 328.261 147.61C326.749 149.468 323.014 147.539 323.014 147.539C323.832 149.472 325.01 151.232 326.485 152.726C328.616 154.533 335.772 154.736 335.772 154.736Z" fill="#8CCC00"/>
<path d="M352.317 145.824C352.317 145.824 363.035 146.585 366.933 141.165C366.933 141.165 369.186 137.267 368.13 134.263C368.13 134.263 361.086 138.8 360.416 135.572C359.746 132.345 367.958 131.096 367.958 131.096C367.958 131.096 370.099 126.021 368.151 122.976C366.202 119.931 361.411 126.975 361.239 124.174C361.066 121.373 367.887 120.053 367.126 117.231C366.323 114.723 365.353 112.271 364.223 109.893C364.223 109.893 356.295 111.507 356.712 114.349C357.128 117.191 358.792 120.733 356.387 119.982C353.981 119.231 352.946 113.679 352.946 113.679C352.946 113.679 349.079 115.587 348.399 118.084C347.719 120.581 356.671 127.605 352.54 127.879C348.409 128.153 346.45 121.17 346.45 121.17C346.45 121.17 343.872 126.874 344.004 131.685C344.136 136.496 352.317 145.824 352.317 145.824Z" fill="#8CCC00"/>
<path d="M316.254 106.828C317.363 107.829 318.477 108.844 319.593 109.873C319.512 108.655 319.41 107.437 319.258 106.219C319.177 105.579 320.161 105.336 320.273 105.975C320.476 107.599 320.618 109.23 320.699 110.867C323.623 113.598 326.526 116.46 329.205 119.475C329.511 117.426 329.64 115.354 329.591 113.283C329.591 112.633 330.606 112.664 330.606 113.283C330.657 115.663 330.481 118.042 330.078 120.388C331.783 122.372 333.376 124.449 334.849 126.61C336.669 124.256 337.945 121.528 338.584 118.622C338.726 117.982 339.69 118.287 339.599 118.926C338.908 122.021 337.52 124.916 335.539 127.392C335.509 127.426 335.475 127.457 335.437 127.483C339.7 133.948 342.542 141.135 342.542 149.366C342.542 150.016 341.527 149.985 341.527 149.366C341.527 141.449 338.807 134.497 334.717 128.244C330.587 129.199 326.329 129.477 322.11 129.066C321.461 129.005 321.491 127.99 322.11 128.051C326.116 128.441 330.158 128.198 334.087 127.331C332.031 124.356 329.758 121.537 327.287 118.896H327.195C324.82 119.028 322.445 119.17 320.09 119.18C318.594 119.349 317.079 119.125 315.695 118.531C315.117 118.216 315.695 117.363 316.233 117.668C317.847 118.541 320.151 118.185 321.907 118.135C323.409 118.135 324.952 118.013 326.424 117.932C322.922 114.237 319.157 110.827 315.513 107.487C315.026 107.081 315.767 106.391 316.254 106.828Z" fill="#06577A"/>
<path d="M347.059 127.564C347.027 127.43 347.049 127.288 347.121 127.17C347.194 127.052 347.31 126.967 347.445 126.935C347.579 126.902 347.721 126.925 347.839 126.997C347.957 127.07 348.042 127.186 348.074 127.321C349.037 131.094 351.199 134.453 354.235 136.892C355.487 133.739 356.641 130.548 357.696 127.321C355.326 124.803 353.403 121.899 352.012 118.734C351.748 118.135 352.641 117.648 352.905 118.246C354.185 121.156 355.926 123.839 358.062 126.194C359.31 122.55 360.325 118.764 361.228 114.978C361.381 114.339 362.355 114.643 362.243 115.283C360.998 120.459 359.503 125.554 357.757 130.569C359.681 130.255 361.559 129.706 363.35 128.934C363.949 128.681 364.436 129.564 363.837 129.828C361.747 130.744 359.54 131.369 357.28 131.685C356.103 134.994 354.803 138.252 353.413 141.47C356.471 141.477 359.504 140.912 362.355 139.805C362.954 139.572 363.451 140.465 362.842 140.698C359.724 141.922 356.397 142.528 353.047 142.485C351.288 146.497 349.37 150.442 347.292 154.32C346.978 154.898 346.125 154.32 346.43 153.782C349.208 148.632 351.698 143.332 353.89 137.907C350.526 135.315 348.122 131.675 347.059 127.564Z" fill="#06577A"/>
<path d="M328.271 140.099L330.89 144.88C331.247 144.435 331.56 143.955 331.824 143.449C332.128 142.87 332.981 143.449 332.686 143.987C332.347 144.633 331.935 145.24 331.458 145.793L334.3 150.97C334.652 150.659 334.885 150.236 334.96 149.772C335.062 149.133 336.077 149.163 335.975 149.772C335.854 150.574 335.433 151.299 334.798 151.802L338.381 158.268C338.445 158.386 338.46 158.526 338.422 158.655C338.384 158.784 338.296 158.893 338.178 158.958C338.059 159.023 337.92 159.038 337.79 158.999C337.661 158.961 337.552 158.873 337.487 158.755L332.768 150.229C331.93 150.217 331.1 150.066 330.311 149.782C329.702 149.559 329.997 148.585 330.616 148.767C331.121 148.944 331.646 149.06 332.179 149.113L327.398 140.475C327.393 140.372 327.42 140.27 327.475 140.182C327.53 140.094 327.61 140.026 327.705 139.985C327.8 139.944 327.905 139.933 328.006 139.954C328.107 139.974 328.2 140.025 328.271 140.099Z" fill="#06577A"/>
<defs>
<linearGradient id="paint0_linear_21_117" x1="114.543" y1="203.314" x2="154.777" y2="178.213" gradientUnits="userSpaceOnUse">
<stop stop-color="white" stop-opacity="0"/>
<stop offset="1" stop-color="#9E005D"/>
</linearGradient>
<linearGradient id="paint1_linear_21_117" x1="202.31" y1="271.928" x2="217.535" y2="238.006" gradientUnits="userSpaceOnUse">
<stop stop-color="white" stop-opacity="0"/>
<stop offset="1" stop-color="#9E005D"/>
</linearGradient>
<linearGradient id="paint2_linear_21_117" x1="319.887" y1="194.026" x2="329.033" y2="173.645" gradientUnits="userSpaceOnUse">
<stop stop-color="white" stop-opacity="0"/>
<stop offset="1" stop-color="#9E005D"/>
</linearGradient>
</defs>
</svg>
