<svg width="406" height="306" viewBox="0 0 406 306" fill="none" xmlns="http://www.w3.org/2000/svg">
<path d="M209.872 292.481L392.298 184.668C398.103 181.42 403.087 176.051 397.423 172.539L214.348 66.9787C211.597 65.2735 207.425 64.157 204.634 65.781L13.195 176.964C7.38922 180.334 6.34377 189.753 12.18 193.133L185.826 292.309C189.474 294.425 193.609 295.554 197.826 295.584C202.043 295.614 206.194 294.545 209.872 292.481Z" fill="#DD6F31"/>
<path d="M300.064 176.091C295.578 173.341 274.243 159.75 269.838 156.887C262.286 151.985 252.644 144.88 252.644 144.88L300.745 122.276L341.101 148.778C333.793 152.604 311.757 179.014 308.103 181.055C306.469 180.09 301.668 177.076 300.064 176.091Z" fill="url(#paint0_linear_18_2)"/>
<path d="M193.266 240.818C178.041 232.627 131.25 195.082 130.336 192.443L181.685 159.354L256.216 198.746C240.311 207.079 215.261 227.207 193.266 240.818Z" fill="url(#paint1_linear_18_2)"/>
<path d="M162.4 150.067L181.685 159.354C182.41 159.705 183.026 160.245 183.467 160.919C183.909 161.592 184.159 162.373 184.191 163.177C184.223 163.982 184.037 164.78 183.651 165.487C183.265 166.194 182.694 166.782 182 167.19L136.264 193.864C135.275 194.441 134.101 194.615 132.987 194.348C131.874 194.082 130.906 193.395 130.285 192.433L119.171 175.178" fill="#56403D"/>
<path d="M65.4776 100.616L222.995 9.88502C223.772 9.41977 224.658 9.17052 225.563 9.16307C226.468 9.15563 227.358 9.39027 228.142 9.84269C228.926 10.2951 229.574 10.9488 230.02 11.7362C230.466 12.5235 230.694 13.4158 230.679 14.3206V110.746C230.679 111.439 230.496 112.121 230.148 112.721C229.801 113.322 229.301 113.82 228.7 114.166L61.0421 210.946C60.7519 211.114 60.4226 211.202 60.0875 211.202C59.7524 211.202 59.4232 211.114 59.133 210.946C58.8429 210.778 58.602 210.537 58.4347 210.247C58.2674 209.956 58.1794 209.627 58.1798 209.292V113.232C58.1809 110.674 58.8559 108.16 60.1371 105.946C61.4182 103.731 63.2602 101.893 65.4776 100.616Z" fill="#68E1FD"/>
<path d="M220.255 18.4009L71.05 104.28C69.4561 105.197 68.1319 106.517 67.2107 108.108C66.2894 109.699 65.8037 111.505 65.8024 113.344V182.435C65.8019 183.097 65.9755 183.748 66.3058 184.321C66.6361 184.895 67.1114 185.372 67.6841 185.704C68.2568 186.036 68.9067 186.212 69.5687 186.213C70.2308 186.215 70.8816 186.043 71.4559 185.713L223.615 98.4235C224.193 98.0954 224.674 97.6183 225.006 97.0417C225.338 96.4652 225.509 95.8103 225.502 95.145V21.4459C225.504 20.8309 225.344 20.2263 225.038 19.6929C224.731 19.1596 224.29 18.7163 223.758 18.4076C223.226 18.099 222.623 17.9358 222.008 17.9346C221.393 17.9335 220.788 18.0943 220.255 18.4009Z" fill="white"/>
<path d="M155.887 148.501C155.006 148.331 154.293 148.189 154.294 148.184C154.295 148.178 155.01 148.311 155.89 148.481C156.771 148.65 157.484 148.792 157.483 148.798C157.482 148.803 156.767 148.67 155.887 148.501Z" fill="#AB643C"/>
<path d="M77.1299 108.137C76.233 108.137 75.5059 107.346 75.5059 106.371C75.5059 105.396 76.233 104.605 77.1299 104.605C78.0268 104.605 78.7539 105.396 78.7539 106.371C78.7539 107.346 78.0268 108.137 77.1299 108.137Z" fill="#659FE4"/>
<path d="M82.3064 105.559C81.4095 105.559 80.6824 104.768 80.6824 103.793C80.6824 102.817 81.4095 102.027 82.3064 102.027C83.2033 102.027 83.9304 102.817 83.9304 103.793C83.9304 104.768 83.2033 105.559 82.3064 105.559Z" fill="#C5E9FF"/>
<path d="M218.509 36.2243L182.558 55.4484C180.832 56.372 179.29 53.7432 181.025 52.8195L216.966 33.5954C218.692 32.6718 220.235 35.3006 218.499 36.2243H218.509Z" fill="#00A99D"/>
<path d="M359.158 204.227C354.671 201.473 350.219 198.665 345.8 195.803C338.259 190.9 335.052 189.956 328.038 184.1L358.133 170.905L388.989 186.617C381.681 190.443 362.802 202.197 359.158 204.227C360.772 205.222 357.524 203.273 359.158 204.227Z" fill="url(#paint2_linear_18_2)"/>
<path d="M343.151 129.076C357.016 129.076 368.262 132.751 368.262 137.288H318.04C318.04 132.7 329.276 129.076 343.151 129.076Z" fill="#0A1D23"/>
<path d="M368.181 137.917L368.262 137.278C368.26 137.493 368.233 137.708 368.181 137.917Z" fill="#06489E"/>
<path d="M318.04 137.288L318.142 138.008C318.077 137.774 318.042 137.531 318.04 137.288Z" fill="#06489E"/>
<path d="M343.151 145.489C330.027 145.489 319.258 142.2 318.142 137.998L318.04 137.278H368.262L368.181 137.917C367.186 142.15 356.367 145.489 343.151 145.489Z" fill="#0A1D23"/>
<path d="M333.549 94.9014H339.203V153.183H333.549V94.9014Z" fill="#25B000"/>
<path d="M336.371 96.0991C334.813 96.0991 333.549 95.5629 333.549 94.9014C333.549 94.24 334.813 93.7037 336.371 93.7037C337.929 93.7037 339.193 94.24 339.193 94.9014C339.193 95.5629 337.929 96.0991 336.371 96.0991Z" fill="#25B000"/>
<path d="M320.993 106.028L326.532 104.897L338.192 162L332.652 163.131L320.993 106.028Z" fill="#FF8F02"/>
<path d="M320.997 106.017C320.865 105.369 321.995 104.591 323.522 104.279C325.049 103.967 326.394 104.24 326.527 104.888C326.659 105.536 325.528 106.314 324.001 106.626C322.475 106.938 321.13 106.665 320.997 106.017Z" fill="#FF8F02"/>
<path d="M349.972 138.567L355.128 141.52C355.233 141.581 355.358 141.597 355.475 141.566C355.592 141.534 355.692 141.458 355.752 141.353C355.813 141.248 355.829 141.123 355.798 141.006C355.767 140.889 355.69 140.789 355.585 140.729L350.307 137.684C350.257 137.653 350.202 137.633 350.145 137.623L351.16 132.04L356.366 135.035C356.471 135.095 356.596 135.111 356.713 135.08C356.83 135.049 356.93 134.972 356.991 134.867C357.051 134.762 357.068 134.637 357.036 134.52C357.005 134.403 356.928 134.303 356.823 134.243L351.545 131.198C351.486 131.163 351.42 131.143 351.352 131.137L352.306 125.971L357.381 128.884C357.486 128.944 357.611 128.961 357.728 128.929C357.845 128.898 357.945 128.821 358.006 128.716C358.066 128.611 358.083 128.486 358.051 128.369C358.02 128.252 357.943 128.152 357.838 128.092L352.56 125.047H352.459L353.524 119.292L358.599 122.195C358.704 122.255 358.829 122.272 358.946 122.24C359.063 122.209 359.163 122.132 359.224 122.027C359.284 121.922 359.301 121.798 359.269 121.68C359.238 121.563 359.161 121.464 359.056 121.403L353.778 118.358H353.697L354.712 112.735L359.868 115.689C359.973 115.749 360.098 115.766 360.215 115.734C360.332 115.703 360.432 115.626 360.492 115.521C360.553 115.416 360.569 115.291 360.538 115.174C360.507 115.057 360.43 114.957 360.325 114.897L355.047 111.852C354.997 111.822 354.942 111.801 354.885 111.791L355.788 106.909L360.954 109.862C361.059 109.923 361.184 109.939 361.301 109.908C361.418 109.877 361.518 109.8 361.578 109.695C361.639 109.59 361.655 109.465 361.624 109.348C361.593 109.231 361.516 109.131 361.411 109.071L356.133 106.026C356.08 105.994 356.021 105.974 355.96 105.965L356.864 101.093L362.02 104.036C362.125 104.097 362.25 104.113 362.367 104.082C362.484 104.051 362.584 103.974 362.644 103.869C362.705 103.764 362.721 103.639 362.69 103.522C362.658 103.405 362.582 103.305 362.477 103.245L357.199 100.2C357.157 100.201 357.116 100.208 357.077 100.22L358.092 94.8608L363.167 97.7738C363.272 97.8344 363.397 97.8508 363.514 97.8194C363.631 97.788 363.731 97.7114 363.791 97.6064C363.852 97.5014 363.868 97.3766 363.837 97.2596C363.805 97.1425 363.729 97.0427 363.624 96.9821L358.346 93.9371H358.244L358.711 91.4402L369.876 98.3829C369.876 98.3829 361.918 142.688 361.756 142.779C357.107 145.205 348.652 145.489 348.652 145.489L349.972 138.567Z" fill="#68E1FD"/>
<path d="M363.634 97.0024C363.739 97.063 363.816 97.1628 363.847 97.2799C363.878 97.3969 363.862 97.5217 363.801 97.6267C363.741 97.7316 363.641 97.8083 363.524 97.8397C363.407 97.8711 363.282 97.8547 363.177 97.7941L358.102 94.8811L358.295 93.9371H358.397L363.634 97.0024Z" fill="#CA4300"/>
<path d="M362.517 103.265C362.622 103.326 362.699 103.425 362.73 103.542C362.762 103.659 362.745 103.784 362.685 103.889C362.624 103.994 362.524 104.071 362.407 104.102C362.29 104.134 362.166 104.117 362.061 104.057L356.904 101.113L357.077 100.22C357.13 100.228 357.182 100.245 357.229 100.271L362.517 103.265Z" fill="#CA4300"/>
<path d="M361.452 109.111C361.557 109.172 361.633 109.272 361.665 109.389C361.696 109.506 361.68 109.631 361.619 109.736C361.559 109.841 361.459 109.917 361.342 109.949C361.225 109.98 361.1 109.964 360.995 109.903L355.829 106.949L356.001 106.036C356.062 106.045 356.121 106.065 356.174 106.097L361.452 109.111Z" fill="#CA4300"/>
<path d="M360.325 114.897C360.43 114.957 360.507 115.057 360.538 115.174C360.569 115.291 360.553 115.416 360.492 115.521C360.432 115.626 360.332 115.703 360.215 115.734C360.098 115.766 359.973 115.749 359.868 115.689L354.712 112.735L354.885 111.821C354.942 111.831 354.997 111.852 355.047 111.882L360.325 114.897Z" fill="#CA4300"/>
<path d="M359.077 121.413C359.182 121.474 359.258 121.574 359.29 121.691C359.321 121.808 359.305 121.932 359.244 122.037C359.183 122.142 359.084 122.219 358.967 122.25C358.85 122.282 358.725 122.265 358.62 122.205L353.545 119.302L353.717 118.358H353.799L359.077 121.413Z" fill="#CA4300"/>
<path d="M357.859 128.122C357.964 128.183 358.04 128.283 358.072 128.4C358.103 128.517 358.087 128.642 358.026 128.747C357.965 128.852 357.866 128.928 357.749 128.96C357.632 128.991 357.507 128.975 357.402 128.914L352.327 126.001L352.499 125.067H352.601L357.859 128.122Z" fill="#CA4300"/>
<path d="M351.545 131.228L356.823 134.273C356.928 134.334 357.005 134.434 357.036 134.551C357.068 134.668 357.051 134.792 356.991 134.897C356.93 135.002 356.83 135.079 356.713 135.111C356.596 135.142 356.471 135.126 356.366 135.065L351.19 132.071L351.363 131.167C351.427 131.174 351.489 131.195 351.545 131.228Z" fill="#CA4300"/>
<path d="M355.585 140.719C355.69 140.779 355.767 140.879 355.798 140.996C355.829 141.113 355.813 141.238 355.752 141.343C355.692 141.448 355.592 141.524 355.475 141.556C355.358 141.587 355.233 141.571 355.128 141.51L349.972 138.557L350.145 137.643C350.202 137.653 350.257 137.674 350.307 137.704L355.585 140.719Z" fill="#CA4300"/>
<path d="M326.536 104.889C326.536 104.889 326.251 106.371 324.008 106.625C321.765 106.878 320.963 106.016 320.963 106.016L321.694 94.8506L326.536 104.889Z" fill="#FFD8BD"/>
<path d="M321.755 94.9014L323.988 99.54C323.669 99.8868 323.24 100.112 322.773 100.177C322.306 100.242 321.832 100.142 321.43 99.8952L321.755 94.9014Z" fill="#653200"/>
<path d="M339.203 94.5563C339.203 94.5563 338.685 95.9773 336.432 95.8758C334.179 95.7743 333.559 94.7999 333.559 94.7999L336.026 83.98L339.203 94.5563Z" fill="#FFD8BD"/>
<path d="M336.026 83.98L337.498 88.9129C337.126 89.191 336.671 89.3336 336.208 89.317C335.744 89.3004 335.3 89.1255 334.95 88.8215L336.026 83.98Z" fill="#653200"/>
<path d="M343.151 145.489C356.346 145.489 367.186 142.15 368.181 137.917C367.521 142.992 363.015 177.827 362.842 178.03C362.842 178.03 360.538 187.855 343.151 187.845C328.363 187.845 324.14 180.415 324.14 180.415L318.142 137.998C319.258 142.2 330.027 145.489 343.151 145.489Z" fill="#173743"/>
<path d="M297.09 54.7074L306.094 59.5083L281.52 82.6503L259.85 89.4508L252.644 79.6662" fill="#FFE8BC"/>
<path d="M263.169 84.5281L254.816 79.7677L297.09 54.7074L296.096 54.1288L252.644 79.6662V144.88L262.124 150.28L265.737 146.504" fill="#68E1FD"/>
<path opacity="0.42" d="M263.169 84.5281L254.816 79.7677L297.09 54.7074L296.096 54.1288L252.644 79.6662V144.88L262.124 150.28L265.737 146.504" fill="#1371A5"/>
<path d="M306.093 59.5084L262.124 85.1371V150.28L306.784 123.585L306.093 59.5084Z" fill="#68E1FD"/>
<path d="M263.778 80.864L266.468 82.5692V96.4544L268.173 94.2721L269.371 95.6221V80.9147L266.854 79.108L263.778 80.864Z" fill="#E85858"/>
<path d="M309.392 73.4138L317.421 77.6971L295.517 98.3219L276.212 104.392L269.777 95.6728" fill="#FFE8BC"/>
<path d="M279.166 99.9967L271.716 95.7642L309.392 73.4139L308.509 72.9064L269.777 95.6728V153.792L278.232 158.603L281.449 155.243" fill="#68E1FD"/>
<path opacity="0.42" d="M279.166 99.9967L271.716 95.7642L309.392 73.4139L308.509 72.9064L269.777 95.6728V153.792L278.232 158.603L281.449 155.243" fill="#1371A5"/>
<path d="M317.421 77.6971L278.232 100.545V158.603L318.04 134.811L317.421 77.6971Z" fill="#68E1FD"/>
<path d="M279.714 96.7386L282.099 98.2509V110.624L283.622 108.685L284.687 109.883V96.7792L282.454 95.1755L279.714 96.7386Z" fill="#E85858"/>
<path d="M261.941 234.2C261.941 234.2 262.418 237.915 261.87 238.138C260.878 238.739 259.707 238.972 258.561 238.798C256.926 238.268 255.262 237.831 253.578 237.489C251.548 237.194 246.29 237.813 245.386 236.413C244.483 235.012 245.386 232.099 245.386 232.099" fill="#FFE0DE"/>
<path d="M245.397 232.119C245.803 229.856 249.152 230.8 250.725 229.775C253.618 227.907 253.77 223.796 253.506 220.721L259.941 218.488L261.21 225.877L261.941 234.241C261.616 234.698 261.185 235.07 260.685 235.325C260.184 235.58 259.63 235.709 259.069 235.702L254.775 234.748C252.045 234.494 245.112 233.703 245.397 232.119Z" fill="#56403D"/>
<path d="M252.968 238.615C252.968 238.615 253.446 242.33 252.897 242.553C251.906 243.154 250.735 243.387 249.588 243.213C247.953 242.683 246.289 242.246 244.605 241.904C242.575 241.609 237.317 242.229 236.414 240.828C235.51 239.427 236.414 236.514 236.414 236.514" fill="#FFE0DE"/>
<path d="M236.424 236.494C236.83 234.23 240.18 235.174 241.753 234.149C244.646 232.282 244.798 228.171 244.534 225.095L250.969 222.862L252.238 230.252L252.969 238.615C252.644 239.073 252.212 239.445 251.712 239.7C251.212 239.954 250.657 240.084 250.096 240.077L245.803 239.123C243.072 238.869 236.14 238.087 236.424 236.494Z" fill="#56403D"/>
<path d="M262.266 213.9L263.9 222.578C263.9 222.578 261.403 225.146 252.989 224.842C244.574 224.537 252.989 209.475 252.989 209.475" fill="#E85B5B"/>
<path d="M273.187 238.595C266.573 238.595 261.21 236.605 261.21 234.149C261.21 231.694 266.573 229.704 273.187 229.704C279.802 229.704 285.164 231.694 285.164 234.149C285.164 236.605 279.802 238.595 273.187 238.595Z" fill="#56403D"/>
<path d="M275.207 214.245L274.74 232.16H271.167V214.245" fill="#56403D"/>
<path d="M250.157 188.393C253.743 189.178 257.36 189.784 261.007 190.21C261.088 190.218 261.166 190.241 261.238 190.28C261.309 190.318 261.372 190.37 261.423 190.433C261.843 189.175 262.202 187.892 262.499 186.586C262.662 185.845 263.799 186.16 263.636 186.901C262.965 189.861 261.967 192.738 260.662 195.478C260.337 196.168 259.322 195.569 259.647 194.879C260.185 193.732 260.662 192.575 261.099 191.387H261.017C257.269 190.947 253.547 190.325 249.852 189.52C249.101 189.367 249.416 188.231 250.157 188.393Z" fill="#008074"/>
<path d="M259.84 196.706C260.797 198.299 262.027 199.711 263.474 200.878C264.062 201.355 263.22 202.187 262.641 201.71C261.122 200.476 259.83 198.985 258.825 197.305C258.786 197.238 258.76 197.164 258.749 197.088C258.738 197.011 258.743 196.933 258.762 196.858C258.781 196.783 258.815 196.713 258.862 196.651C258.908 196.589 258.966 196.537 259.033 196.498C259.1 196.459 259.173 196.433 259.25 196.422C259.327 196.411 259.405 196.415 259.48 196.435C259.555 196.454 259.625 196.488 259.687 196.534C259.749 196.581 259.801 196.639 259.84 196.706Z" fill="#008074"/>
<path d="M267.189 192.869C267.189 192.869 257.8 185.338 251.568 184.445C245.336 183.551 242.077 190.322 242.524 194.848C242.971 199.375 257.891 201.852 257.891 201.852" fill="#EDBAB9"/>
<path d="M262.185 195.376C260.967 194.25 245.031 186.81 239.418 190.21C233.805 193.61 234.161 196.117 234.871 200.258C235.582 204.4 240.961 226.648 240.961 226.648C245.036 228.213 249.506 228.423 253.709 227.247L252.136 210.693L273.37 199.101" fill="#FF7E7B"/>
<path d="M273.796 168.743C272.954 169.362 265.676 170.235 264.154 173.594C262.631 176.954 260.317 194.239 260.317 194.239C260.317 194.239 264.682 200.746 272.243 198.431C274.486 197.741 286.118 176.477 286.453 174.274C287.245 168.53 273.796 168.743 273.796 168.743Z" fill="#FCCA4C"/>
<path d="M288.148 206.105C288.516 205.232 288.818 204.333 289.052 203.415C290.838 196.422 292.005 170.164 280.201 171.24C267.249 172.407 271.624 204.836 258.5 203.841C245.376 202.847 239.997 206.257 245.366 211.342C256.095 221.502 281.571 221.736 288.148 206.105Z" fill="#68E1FD"/>
<path d="M269.148 159.374C269.066 159.902 268.133 167.423 270.355 169.118C272.578 170.813 277.582 166.814 277.704 164.825C277.826 162.835 279.521 158.735 277.389 157.659C275.258 156.583 269.746 155.659 269.148 159.374Z" fill="#FFE0DE"/>
<path d="M271.005 154.096L271.259 153.934C274.111 152.259 278.81 152.675 281.175 155.081C281.812 155.771 282.364 156.534 282.82 157.354C283.166 157.963 283.549 158.549 283.967 159.11C284.017 162.133 282.867 165.053 280.769 167.23C278.728 168.524 276.375 169.243 273.959 169.311C273.025 166.52 274.375 163.343 273.045 160.541C272.4 159.286 271.358 158.28 270.081 157.679C270.026 156.42 270.347 155.172 271.005 154.096Z" fill="#E0902F"/>
<path d="M271.888 164.571C272.033 164.156 272.263 163.777 272.564 163.457C272.864 163.137 273.229 162.884 273.634 162.714C274.375 162.409 275.39 162.318 275.836 163.13C276.851 164.926 274.395 166.175 273.096 166.682C272.487 166.916 272.223 165.931 272.822 165.667L273.035 165.586H272.964C272.901 165.59 272.837 165.581 272.777 165.56C272.718 165.538 272.663 165.504 272.617 165.46C272.571 165.416 272.535 165.363 272.511 165.304C272.487 165.246 272.475 165.183 272.477 165.119C272.142 165.241 271.736 164.997 271.888 164.571Z" fill="#FFE0DE"/>
<path d="M252.126 161.445L231.187 174.559L234.658 189.327L254.217 175.969L252.126 161.445Z" fill="#68E1FD"/>
<path d="M254.217 175.959C254.217 175.959 264.915 181.288 264.783 181.42C264.651 181.552 245.884 195.63 245.884 195.63L234.658 189.357L254.217 175.959Z" fill="#3129A3"/>
<path d="M249.69 187.236C249.69 187.236 246.848 184.688 246.422 184.485C246.095 184.423 245.758 184.437 245.437 184.527C245.117 184.617 244.821 184.78 244.574 185.003C244.118 185.429 243.478 185.277 242.971 185.825C242.463 186.373 241.174 188.302 241.539 188.809C241.905 189.317 242.93 188.089 243.275 187.794C243.62 187.5 243.275 188.809 243.762 189.591C244.25 190.372 247.203 191.113 247.995 190.961" fill="#FFE0DE"/>
<path d="M263.677 175.959C263.677 175.959 260.195 187.845 258.155 187.886C256.115 187.926 249.71 185.764 249.71 185.764C249.71 185.764 246.95 188.586 247.264 190.372C247.579 192.159 258.927 198.492 263.667 197.335C268.407 196.178 270.701 179.796 270.599 179.481C270.498 179.167 263.677 175.959 263.677 175.959Z" fill="#FCCA4C"/>
<path d="M251.558 180.131C252.11 179.714 252.69 179.334 253.293 178.994C253.821 178.751 254.308 178.476 254.775 178.213C254.983 178.081 255.215 177.993 255.457 177.955C255.7 177.916 255.948 177.928 256.186 177.989C257.208 178.743 258.191 179.55 259.13 180.405C259.698 180.811 260.276 181.207 260.875 181.582C260.98 181.646 261.058 181.745 261.095 181.861C261.132 181.978 261.126 182.104 261.078 182.216C261.03 182.328 260.943 182.42 260.833 182.473C260.723 182.526 260.597 182.538 260.479 182.506C260.185 182.435 259.901 182.344 259.617 182.242C259.629 182.421 259.629 182.601 259.617 182.78C259.73 183.399 259.615 184.037 259.292 184.577C259.259 184.644 259.21 184.703 259.15 184.749L259.525 184.891C260.134 185.115 259.87 186.099 259.251 185.906L255.76 184.627C254.912 184.408 254.137 183.966 253.517 183.348C253.434 183.27 253.381 183.165 253.365 183.052C253.349 182.94 253.372 182.825 253.429 182.726C253.486 182.628 253.575 182.551 253.682 182.51C253.788 182.468 253.905 182.463 254.014 182.496C254.268 182.557 254.511 182.638 254.755 182.719C254.197 181.958 253.344 181.044 253.05 181.298C252.716 181.55 252.313 181.694 251.895 181.708C251.477 181.723 251.065 181.608 250.715 181.379C250.167 180.831 251.141 180.405 251.558 180.131Z" fill="#FFE0DE"/>
<path d="M259.15 180.507C259.15 180.507 262.773 180.984 265.483 181.055C266.59 182.557 267.595 184.1 268.528 185.724C268.325 186.739 268.244 187.754 268.021 188.769C267.994 188.964 267.994 189.162 268.021 189.357C263.2 188.566 258.064 186.576 257.648 185.51C256.998 183.805 259.15 180.507 259.15 180.507Z" fill="#FCCA4C"/>
<path d="M278.892 157.06C278.989 156.642 279.202 156.26 279.508 155.958C279.813 155.656 280.198 155.447 280.617 155.355C283.134 154.685 286.453 156.218 287.204 158.816C287.499 160.208 287.23 161.659 286.455 162.853C285.681 164.046 284.464 164.883 283.073 165.18C282.377 165.242 281.676 165.159 281.013 164.936C280.35 164.714 279.741 164.358 279.222 163.889C278.704 163.42 278.288 162.849 278 162.212C277.713 161.575 277.56 160.885 277.552 160.186C277.556 159.602 277.677 159.025 277.907 158.488C278.137 157.951 278.472 157.466 278.892 157.06Z" fill="#CC781D"/>
<path d="M192.353 250.927C192.353 251.353 192.688 256.449 192.119 257.017C191.551 257.586 190.089 260.488 188.211 260.62C186.334 260.752 184.649 260.377 184.304 262.356C183.959 264.335 194.778 265.005 194.778 265.005C194.778 265.005 195.915 260.478 196.402 260.61C196.89 260.742 196.91 265.665 196.91 265.665L198.94 266.091L200.97 264.752L200.158 256.063L198.849 248.684" fill="#3129A3"/>
<path d="M184.243 258.215C184.507 261.26 184.354 265.401 181.462 267.269C179.878 268.284 176.539 267.35 176.133 269.613C175.778 271.593 186.598 272.323 186.598 272.323C186.598 272.323 187.765 267.796 188.252 267.939C188.739 268.081 188.689 272.943 188.689 272.943L190.719 273.389L192.749 272.059L191.987 263.371L190.719 255.982" fill="#3129A3"/>
<path d="M201.985 246.999L203.579 255.688C203.579 255.688 201.082 258.255 192.667 257.951C184.253 257.646 192.667 242.584 192.667 242.584" fill="#EDBAB9"/>
<path d="M212.886 271.714C206.271 271.714 200.909 269.724 200.909 267.269C200.909 264.813 206.271 262.823 212.886 262.823C219.501 262.823 224.863 264.813 224.863 267.269C224.863 269.724 219.501 271.714 212.886 271.714Z" fill="#56403D"/>
<path d="M214.906 247.354L214.439 265.269H210.866V247.354" fill="#56403D"/>
<path d="M189.805 221.502C193.391 222.287 197.008 222.893 200.655 223.319C200.736 223.327 200.815 223.351 200.886 223.389C200.957 223.427 201.021 223.479 201.072 223.542C201.491 222.284 201.85 221.002 202.147 219.696C202.31 218.955 203.447 219.269 203.284 220.01C202.613 222.97 201.615 225.847 200.31 228.587C199.985 229.277 198.97 228.678 199.295 227.988C199.833 226.841 200.31 225.684 200.747 224.497H200.666C196.917 224.057 193.195 223.434 189.501 222.629C188.79 222.477 189.105 221.34 189.805 221.502Z" fill="#008074"/>
<path d="M199.539 229.815C200.496 231.408 201.726 232.82 203.173 233.987C203.761 234.464 202.919 235.296 202.34 234.819C200.82 233.585 199.529 232.094 198.524 230.414C198.485 230.347 198.459 230.274 198.448 230.197C198.437 230.12 198.441 230.042 198.461 229.968C198.48 229.893 198.514 229.822 198.561 229.76C198.607 229.699 198.665 229.646 198.732 229.607C198.799 229.568 198.872 229.542 198.949 229.531C199.026 229.52 199.104 229.525 199.178 229.544C199.253 229.563 199.324 229.597 199.386 229.644C199.447 229.69 199.5 229.749 199.539 229.815Z" fill="#008074"/>
<path d="M206.887 225.978C206.887 225.978 197.499 218.447 191.267 217.554C185.035 216.661 181.776 223.431 182.223 227.958C182.67 232.485 197.59 234.961 197.59 234.961" fill="#EDBAB9"/>
<path d="M201.884 228.486C200.666 227.359 184.73 219.919 179.117 223.319C173.504 226.719 173.859 229.226 174.57 233.368C175.28 237.509 180.66 259.758 180.66 259.758C184.734 261.323 189.205 261.533 193.408 260.357L191.835 243.842L213.15 232.241" fill="#FFE0DE"/>
<path d="M213.495 201.862C212.653 202.481 205.375 203.354 203.853 206.714C202.33 210.073 200.016 227.359 200.016 227.359C200.016 227.359 204.38 233.865 211.942 231.551C214.185 230.861 225.817 209.596 226.152 207.394C226.954 201.639 213.495 201.862 213.495 201.862Z" fill="#006D29"/>
<path d="M227.847 239.214C228.215 238.341 228.517 237.442 228.751 236.524C230.537 229.531 231.704 203.273 219.9 204.349C206.948 205.516 211.323 237.945 198.199 236.951C185.075 235.956 179.696 239.366 185.065 244.451C195.793 254.612 221.27 254.845 227.847 239.214Z" fill="#68E1FD"/>
<path d="M208.846 192.483C208.765 193.011 207.831 200.532 210.054 202.227C212.277 203.923 217.281 199.923 217.403 197.934C217.525 195.945 219.22 191.844 217.088 190.768C214.957 189.692 209.445 188.769 208.846 192.483Z" fill="#FFE0DE"/>
<path d="M210.968 187.053C213.82 185.378 218.519 185.795 220.884 188.2C221.521 188.89 222.073 189.653 222.529 190.474C222.875 191.082 223.258 191.668 223.676 192.23C223.726 195.253 222.576 198.173 220.478 200.35C218.09 201.889 215.262 202.602 212.429 202.38C212.673 201.365 212.886 200.35 213.048 199.335C213.312 197.68 213.708 195.66 212.48 194.26C212.274 194.005 211.999 193.814 211.688 193.71C211.377 193.606 211.043 193.592 210.724 193.671L210.643 193.62L208.207 193.773C207.777 192.508 207.819 191.13 208.327 189.895C208.834 188.659 209.773 187.65 210.968 187.053Z" fill="#E0902F"/>
<path d="M222.579 191.57C225.289 186.698 233.501 189.093 234.11 194.25C234.361 196.716 233.7 199.189 232.252 201.202C230.304 203.638 230.222 209.069 233.592 213.027C236.962 216.986 234.211 221.746 230.304 223.431C226.396 225.116 217.931 225.065 218.225 218.224C218.519 211.383 226.771 202.644 226.65 197.924C226.528 193.204 221.778 195.894 221.778 195.894" fill="#E0902F"/>
<path d="M221.27 191.763C221.27 191.224 221.484 190.708 221.865 190.327C222.245 189.947 222.762 189.733 223.3 189.733C223.834 189.746 224.343 189.964 224.721 190.342C225.099 190.72 225.317 191.229 225.33 191.763C225.403 192.576 225.423 193.393 225.391 194.209C225.391 194.747 225.177 195.264 224.796 195.644C224.416 196.025 223.899 196.239 223.361 196.239C222.823 196.239 222.306 196.025 221.926 195.644C221.545 195.264 221.331 194.747 221.331 194.209C221.363 193.393 221.343 192.576 221.27 191.763Z" fill="#3129A3"/>
<path d="M211.587 197.66C211.732 197.245 211.962 196.866 212.263 196.546C212.563 196.226 212.928 195.973 213.333 195.803C214.074 195.498 215.089 195.407 215.535 196.219C216.55 198.015 214.094 199.264 212.795 199.771C212.186 200.005 211.922 199.02 212.521 198.756L212.734 198.675H212.663C212.599 198.679 212.536 198.67 212.476 198.649C212.416 198.627 212.362 198.593 212.316 198.549C212.27 198.505 212.234 198.452 212.21 198.393C212.186 198.335 212.174 198.272 212.176 198.208C211.841 198.35 211.435 198.107 211.587 197.66Z" fill="#FFE0DE"/>
<path d="M191.825 194.554L170.885 207.668L174.357 222.436L193.916 209.079L191.825 194.554Z" fill="#68E1FD"/>
<path d="M193.916 209.079C193.916 209.079 204.604 214.407 204.482 214.55C204.36 214.692 185.583 228.709 185.583 228.709L174.357 222.436L193.916 209.079Z" fill="#3129A3"/>
<path d="M189.419 220.345C189.419 220.345 186.577 217.798 186.151 217.595C185.824 217.532 185.487 217.546 185.166 217.636C184.846 217.726 184.551 217.889 184.304 218.112C183.847 218.539 183.208 218.386 182.7 218.934C182.193 219.482 180.903 221.411 181.269 221.918C181.634 222.426 182.659 221.198 183.005 220.903C183.35 220.609 183.005 221.918 183.492 222.7C183.979 223.482 186.933 224.223 187.724 224.07" fill="#FFE0DE"/>
<path d="M203.376 209.079C203.376 209.079 199.894 221.005 197.864 221.005C195.834 221.005 189.419 218.884 189.419 218.884C189.419 218.884 186.659 221.705 186.973 223.492C187.288 225.278 198.636 231.612 203.376 230.455C208.116 229.298 210.41 212.915 210.308 212.601C210.207 212.286 203.376 209.079 203.376 209.079Z" fill="#006D29"/>
<path d="M191.256 213.24C191.809 212.823 192.389 212.443 192.992 212.103C193.52 211.86 194.007 211.586 194.474 211.322C194.681 211.19 194.914 211.102 195.156 211.064C195.399 211.026 195.647 211.037 195.885 211.099C196.911 211.866 197.897 212.685 198.839 213.555C199.407 213.961 199.985 214.357 200.584 214.732C200.689 214.796 200.767 214.895 200.804 215.011C200.841 215.128 200.835 215.254 200.787 215.366C200.739 215.478 200.652 215.569 200.542 215.623C200.432 215.676 200.306 215.688 200.188 215.656C199.894 215.585 199.61 215.494 199.326 215.392C199.338 215.571 199.338 215.751 199.326 215.93C199.439 216.548 199.324 217.187 199.001 217.727C198.968 217.794 198.919 217.853 198.859 217.899L199.234 218.041C199.843 218.265 199.579 219.249 198.96 219.056L195.469 217.777C194.621 217.558 193.846 217.116 193.226 216.498C193.143 216.42 193.09 216.315 193.074 216.202C193.058 216.089 193.081 215.974 193.138 215.876C193.195 215.777 193.284 215.701 193.391 215.659C193.497 215.618 193.614 215.613 193.723 215.646C193.977 215.707 194.22 215.788 194.464 215.869C193.906 215.108 193.053 214.194 192.759 214.448C192.425 214.7 192.022 214.844 191.604 214.858C191.186 214.873 190.774 214.758 190.424 214.529C189.866 213.9 190.82 213.494 191.256 213.24Z" fill="#FFE0DE"/>
<path d="M198.849 213.616C198.849 213.616 202.472 214.093 205.182 214.164C206.289 215.666 207.293 217.209 208.227 218.833C208.024 219.848 207.943 220.863 207.72 221.878C207.693 222.073 207.693 222.271 207.72 222.467C202.899 221.675 197.763 219.685 197.346 218.62C196.697 216.945 198.849 213.616 198.849 213.616Z" fill="#006D29"/>
<path d="M152.047 81.7267L157.518 80.6609L157.599 80.8741C157.916 80.6882 158.258 80.5481 158.614 80.4579C159.138 80.311 159.697 80.3688 160.18 80.6195C160.662 80.8702 161.032 81.295 161.212 81.8079C161.368 82.2199 161.368 82.6747 161.212 83.0868C161.387 83.2668 161.523 83.4799 161.614 83.7135C161.704 83.9471 161.747 84.1964 161.74 84.4469C161.742 84.9824 161.539 85.4983 161.172 85.8882C161.344 86.1961 161.412 86.5519 161.365 86.9017C161.317 87.2515 161.157 87.5763 160.908 87.8268C160.25 88.3739 159.452 88.7255 158.604 88.8418C157.163 91.6635 153.671 95.3886 152.605 94.7999C151.215 94.0285 149.195 90.3846 149.195 90.3846L152.047 81.7267Z" fill="#E89C89"/>
<path d="M153.468 83.6654L178.417 47.2675L179.401 47.6938L152.554 91.1256" fill="#935A4E"/>
<path d="M147.236 89.6538C147.236 89.6538 148.19 81.95 149.631 81.0771C151.073 80.2042 155.792 78.2554 156.675 79.2805C157.558 80.3057 158.37 82.3255 157.518 83.1274C156.665 83.9292 155.021 81.95 155.021 81.95L153.59 82.965C153.59 82.965 155.457 84.5788 155.346 88.4257C155.219 90.8216 154.227 93.0902 152.555 94.81L147.236 89.6538Z" fill="#FFB7A2"/>
<path d="M127.697 125.717L130.103 89.6539C131.118 90.5369 134.467 110.969 136.132 124.874C133.31 125.027 130.509 125.362 127.697 125.717Z" fill="#27D9D3"/>
<path d="M72.674 89.2377L72.065 88.1415C72.2737 88.0164 72.4305 87.8205 72.5069 87.5895C72.5833 87.3585 72.5741 87.1077 72.4811 86.8829C71.9635 85.6954 71.4154 84.5281 70.8673 83.3507C70.901 83.2072 70.901 83.0578 70.8673 82.9143C70.1499 80.2704 69.8485 77.5309 69.9741 74.7943C70.2075 72.6019 70.8673 70.5008 71.0804 68.3084C71.1616 67.5269 70.2583 67.2934 69.6797 67.5066C69.1805 67.7471 68.7868 68.1624 68.5734 68.6738C67.895 69.6611 67.4602 70.795 67.3046 71.9827C67.255 71.4726 67.1284 70.973 66.9291 70.5008C66.7802 69.9053 66.6347 69.3099 66.4926 68.7144C66.2839 67.7691 65.9707 66.85 65.5588 65.9739C65.1427 65.1518 64.2089 64.7762 63.742 65.3142C63.0315 66.1262 63.742 67.5979 63.8536 68.5419C63.9653 69.4858 64.1378 70.3181 64.3814 71.2722C64.016 70.3892 63.2649 68.8464 62.7777 67.7806C62.4022 66.9585 61.3364 64.2789 60.159 64.6443C58.9816 65.0097 59.5399 66.8367 59.8647 67.6893L60.7883 70.176C61.0624 70.917 61.3669 71.8812 61.6815 72.5613C61.6815 72.5613 60.4432 70.7546 59.8241 69.7903C59.3267 69.0291 58.8091 67.9227 57.6824 68.2577C56.9618 68.481 57.0125 69.5467 57.3475 70.1862C58.2407 71.8812 59.2354 73.5052 60.2707 75.0988C59.6008 74.4796 58.9613 73.8402 58.2407 73.2413C58.0901 73.1394 57.9148 73.0798 57.7332 73.0688C57.5517 73.0578 57.3705 73.0958 57.2087 73.1788C57.0469 73.2618 56.9103 73.3867 56.8133 73.5406C56.7163 73.6944 56.6624 73.8715 56.6573 74.0533C56.6484 74.2302 56.6984 74.4051 56.7994 74.5507L65.366 86.8626C66.2042 88.8206 67.3829 90.6145 68.8474 92.1609C69.6696 93.0237 70.9891 91.7143 70.1568 90.8516L70.0451 90.7196C70.0764 90.6747 70.1035 90.6272 70.1263 90.5775C70.265 90.5455 70.3954 90.4847 70.5091 90.399C70.6227 90.3133 70.7171 90.2047 70.7861 90.0802H70.847C70.9367 90.1409 71.0363 90.1855 71.1413 90.2121C71.2884 90.3699 71.486 90.4713 71.6999 90.4986C71.9138 90.526 72.1306 90.4776 72.3126 90.3619C72.4946 90.2462 72.6304 90.0704 72.6964 89.8651C72.7624 89.6597 72.7545 89.4378 72.674 89.2377Z" fill="#FFB7A2"/>
<path d="M66.0765 72.7338C65.3517 73.3096 64.7806 74.0558 64.414 74.9059C64.0474 75.7559 63.8967 76.6834 63.9755 77.6058C63.9755 78.0219 64.6656 78.0321 64.6352 77.6058C64.5577 76.7689 64.6919 75.9259 65.0253 75.1544C65.3587 74.3829 65.8808 73.7076 66.5434 73.1905C66.8784 72.9368 66.4115 72.48 66.0765 72.7338Z" fill="#42342D"/>
<path d="M65.1732 71.729C64.6995 70.0035 64.3037 68.2577 63.9857 66.4916C63.9146 66.0754 63.2752 66.248 63.3564 66.6641C63.6744 68.4235 64.0702 70.1693 64.5439 71.9015C64.5668 71.985 64.6219 72.0559 64.6971 72.0987C64.7723 72.1416 64.8614 72.1528 64.9448 72.1299C65.0283 72.107 65.0992 72.0519 65.1421 71.9767C65.1849 71.9016 65.1961 71.8124 65.1732 71.729Z" fill="#42342D"/>
<path d="M62.4023 73.1804C61.5154 71.2587 60.7921 69.2656 60.2403 67.2223C60.2174 67.1389 60.1623 67.068 60.0871 67.0251C60.0119 66.9823 59.9228 66.9711 59.8394 66.994C59.7559 67.0169 59.685 67.072 59.6421 67.1471C59.5993 67.2223 59.5881 67.3115 59.611 67.3949C60.1802 69.4835 60.9238 71.5207 61.8339 73.4849C62.0166 73.9011 62.5748 73.5661 62.4023 73.1804Z" fill="#42342D"/>
<path d="M61.377 75.7585C59.9781 74.1452 58.7943 72.3575 57.8549 70.4399C57.6722 70.0644 57.1038 70.4399 57.2865 70.7749C58.2509 72.74 59.4654 74.572 60.8999 76.2254C61.1943 76.5502 61.6612 76.0833 61.377 75.7585Z" fill="#42342D"/>
<path d="M91.0252 153.924C93.4275 145.888 96.5953 138.101 100.485 130.67L126.388 130.426C126.956 133.959 127.971 137.41 128.6 140.993C129.278 144.8 129.53 148.67 129.352 152.533C122.033 156.654 112.421 162.247 105.469 166.246L86.1836 177.309C87.8178 169.636 88.8835 161.506 91.0252 153.924Z" fill="#159E97"/>
<path d="M99.1452 107.477C99.5242 101.793 100.055 96.116 100.739 90.4456C103.977 86.4363 108.422 83.3406 113.304 82.691C118.187 82.0414 125.302 83.3203 128.631 87.2483C131.777 90.9937 131.25 96.3833 131.057 100.88C130.945 103.62 130.803 106.361 130.651 109.101C129.22 116.46 127.149 123.677 126.713 131.188C119.516 134.557 108.656 132.832 100.526 130.64C100.049 122.915 99.47 115.201 99.1452 107.477Z" fill="#27D9D3"/>
<path d="M112.665 83.442C108.779 83.6375 105.005 84.8105 101.693 86.8524C99.1757 88.4967 97.7344 91.156 95.0142 92.5161C91.3602 94.3533 86.001 94.333 82.9966 91.2372C81.375 89.4633 79.8503 87.6031 78.4291 85.6649C77.3024 84.2236 72.6741 76.7126 70.2381 77.6362C67.3859 78.7121 63.2752 82.7112 63.1331 84.995C62.991 87.2787 75.0288 111.06 85.6965 112.735C92.3496 113.623 99.1023 112.127 104.758 108.513" fill="#27D9D3"/>
<path d="M110.046 79.2704V86.081C112.724 86.9116 115.59 86.9116 118.268 86.081V79.92" fill="#FCAA97"/>
<path d="M130.6 110.37C130.6 110.37 145.429 89.1666 147.236 89.6741C149.043 90.1816 154.767 93.0135 154.341 95.3074C153.915 97.6013 142.222 131.32 126.276 129.361" fill="#27D9D3"/>
<path d="M109.894 82.153C110.428 83.4457 111.196 84.6292 112.158 85.6446C113.173 86.7916 114.634 86.416 116.218 86.5074L115.142 94.8202L107.945 84.6702L109.894 82.153Z" fill="#159E97"/>
<path d="M116.258 86.5074L119.77 94.2214L120.318 87.025L117.973 82.356C117.973 82.356 118.755 86.2942 116.258 86.5074Z" fill="#159E97"/>
<path d="M124.277 63.68C124.754 63.8018 127.768 84.0815 119.354 84.2439C110.94 84.4063 109.316 77.7885 109.062 76.1239C108.808 74.4593 111.488 69.2828 112.31 67.3543C113.132 65.4258 122.216 63.1217 124.277 63.68Z" fill="#FFB7A2"/>
<path d="M125.322 61.5789C122.785 57.0013 112.959 55.9558 106.128 62.2285C104.364 64.086 103.376 66.5481 103.368 69.1102C103.544 71.6467 104.389 74.0914 105.815 76.1965C107.241 78.3016 109.198 79.9924 111.488 81.0974C111.488 81.0974 111.488 81.0974 111.488 81.0162C111.488 80.935 111.488 80.7624 111.417 80.6406C111.346 80.5188 111.417 80.4579 111.366 80.3666C110.645 76.8242 110.808 72.3582 112.482 69.2016C114.157 66.0449 117.557 65.1416 120.856 64.5833C121.925 64.303 123.031 64.1934 124.135 64.2585L125.221 69.4655C126.025 68.3121 126.465 66.9439 126.483 65.5378C126.501 64.1317 126.097 62.7526 125.322 61.5789Z" fill="#EDB033"/>
<path d="M93.6761 64.5325C93.4279 60.9647 96.119 57.8712 99.6868 57.6229C103.255 57.3747 106.348 60.0657 106.596 63.6335C106.845 67.2013 104.153 70.2949 100.586 70.5431C97.0179 70.7913 93.9244 68.1003 93.6761 64.5325Z" fill="#EDB033"/>
<path d="M125.261 67.8212H117.283L116.542 65.4258L115.852 68.3998L113.579 68.5419C113.579 68.5419 113.467 80.7929 111.721 81.067C109.975 81.341 107.529 76.0732 107.265 72.947C107.001 69.8208 108.696 63.2334 114.451 61.447C121.699 59.2546 124.926 62.1474 125.261 67.8212Z" fill="#EDB033"/>
<path d="M129.92 98.1291C129.859 97.4389 130.935 97.449 130.986 98.1291C132.082 110.015 126.875 121.22 126.499 133.004C126.499 133.695 125.403 133.695 125.434 133.004C125.86 121.22 131.047 110.005 129.92 98.1291Z" fill="#159E97"/>
<path d="M97.0543 110.959C99.4167 110.515 101.607 109.418 103.378 107.792C103.885 107.325 104.647 108.086 104.139 108.553C102.237 110.311 99.8816 111.503 97.3385 111.994C96.6686 112.126 96.425 111.091 97.0543 110.959Z" fill="#159E97"/>
<path d="M218.509 48.8305L182.558 68.0546C180.832 68.9783 179.29 66.3494 181.025 65.4258L216.966 46.2017C218.692 45.278 220.235 47.9069 218.499 48.8305H218.509Z" fill="#00A99D"/>
<path d="M218.509 61.0004L182.558 80.2245C180.832 81.1481 179.29 78.5193 181.025 77.5956L216.966 58.3715C218.692 57.4479 220.235 60.0767 218.499 61.0004H218.509Z" fill="#00A99D"/>
<path d="M206.733 97.1358C202.928 95.8582 201.472 89.9718 203.481 83.9881C205.49 78.0043 210.204 74.1892 214.009 75.4668C217.813 76.7443 219.269 82.6307 217.26 88.6145C215.251 94.5982 210.538 98.4133 206.733 97.1358Z" fill="#68E1FD"/>
<path d="M186.553 108.436C182.748 107.158 181.292 101.272 183.301 95.2879C185.31 89.3042 190.023 85.4891 193.828 86.7666C197.633 88.0442 199.089 93.9306 197.08 99.9143C195.071 105.898 190.358 109.713 186.553 108.436Z" fill="#68E1FD"/>
<defs>
<linearGradient id="paint0_linear_18_2" x1="312.245" y1="162.927" x2="284.291" y2="133.654" gradientUnits="userSpaceOnUse">
<stop stop-color="#DD6F31"/>
<stop offset="1" stop-color="#532A12"/>
</linearGradient>
<linearGradient id="paint1_linear_18_2" x1="201.863" y1="221.441" x2="176.772" y2="146.159" gradientUnits="userSpaceOnUse">
<stop stop-color="#DD6F31"/>
<stop offset="1" stop-color="#532A12"/>
</linearGradient>
<linearGradient id="paint2_linear_18_2" x1="368.79" y1="196.117" x2="349.799" y2="176.233" gradientUnits="userSpaceOnUse">
<stop stop-color="#DD6F31"/>
<stop offset="1" stop-color="#532A12"/>
</linearGradient>
</defs>
</svg>
